<svg width="24" height="24" viewBox="0 0 24 24" fill="none" xmlns="http://www.w3.org/2000/svg">
<path d="M12 21.571L3.51498 13.086C2.38967 11.9608 1.75742 10.4347 1.75732 8.84336C1.75723 7.25202 2.3893 5.72582 3.51448 4.6005C4.63966 3.47519 6.16579 2.84294 7.75713 2.84285C9.34847 2.84276 10.8747 3.47482 12 4.6C13.1258 3.4761 14.6517 2.84485 16.2425 2.84485C17.8333 2.84485 19.3591 3.4761 20.485 4.6C21.6084 5.72612 22.2393 7.25184 22.2393 8.8425C22.2393 10.4332 21.6084 11.9589 20.485 13.085L12 21.571ZM7.75698 4.843C6.96577 4.84298 6.19233 5.07759 5.53447 5.51718C4.87662 5.95676 4.36391 6.58157 4.06119 7.31258C3.75847 8.04358 3.67934 8.84794 3.8338 9.62393C3.98827 10.3999 4.3694 11.1126 4.92898 11.672L12 18.743L19.071 11.672C19.4771 11.2749 19.794 10.7959 20.0006 10.2668C20.2072 9.73767 20.2988 9.17064 20.2691 8.60341C20.2395 8.03617 20.0895 7.48175 19.8289 6.97703C19.5684 6.47231 19.2033 6.02887 18.758 5.67622C18.3128 5.32357 17.7975 5.06979 17.2465 4.93178C16.6955 4.79376 16.1215 4.77468 15.5625 4.87579C15.0036 4.9769 14.4726 5.19589 14.0049 5.51819C13.5372 5.84049 13.1435 6.25871 12.85 6.745L12 8.117L11.15 6.745C10.7991 6.16004 10.3014 5.67696 9.70621 5.34368C9.11104 5.01039 8.43908 4.83849 7.75698 4.845V4.843Z" fill="black"/>
</svg>
