<svg width="24" height="24" viewBox="0 0 24 24" fill="none" xmlns="http://www.w3.org/2000/svg">
<path d="M15.894 22.239C12.876 22.239 9.32396 20.639 6.34296 17.657C1.58496 12.9 0.342957 6.68702 3.51496 3.51502C4.42708 2.59016 5.61918 1.99253 6.90596 1.81502L7.66596 1.70502L10.466 8.22702L7.66596 9.62702C8.44705 11.026 9.43068 12.3018 10.585 13.413C11.6969 14.5541 12.966 15.5307 14.354 16.313L15.669 13.739L22.152 14.665L22.19 15.492C22.276 16.398 22.1683 17.3118 21.8742 18.173C21.5801 19.0342 21.1062 19.823 20.484 20.487C19.8746 21.0707 19.1545 21.5265 18.3662 21.8274C17.5779 22.1283 16.7373 22.2682 15.894 22.239ZM6.46096 3.97102C5.88278 4.16696 5.35824 4.49497 4.92896 4.92902C2.62896 7.22902 3.92896 12.41 7.75696 16.243C11.585 20.076 16.771 21.37 19.071 19.071C19.7497 18.3432 20.144 17.3955 20.182 16.401L16.814 15.92L16.168 17.214C16.0489 17.4539 15.8824 17.6671 15.6786 17.8407C15.4747 18.0143 15.2377 18.1447 14.982 18.224C14.7212 18.3051 14.4468 18.333 14.175 18.306C13.9033 18.2791 13.6397 18.1978 13.4 18.067C11.8433 17.1946 10.4195 16.1039 9.17196 14.828C7.87926 13.5798 6.77684 12.1485 5.89996 10.58C5.77361 10.3436 5.69587 10.0842 5.6713 9.81728C5.64674 9.55032 5.67585 9.28115 5.75693 9.02562C5.83801 8.77009 5.9694 8.53337 6.14338 8.32941C6.31736 8.12544 6.53041 7.95837 6.76996 7.83802L7.87696 7.28502L6.46096 3.97102Z" fill="black"/>
</svg>
