<svg width="24" height="24" viewBox="0 0 24 24" fill="none" xmlns="http://www.w3.org/2000/svg">
<path d="M21.707 20.293L18.025 16.611C19.4651 14.8095 20.1607 12.5249 19.9688 10.2265C19.777 7.9281 18.7123 5.79044 16.9935 4.2526C15.2746 2.71476 13.0321 1.8935 10.7267 1.95752C8.42118 2.02154 6.22773 2.96597 4.59688 4.59682C2.96603 6.22767 2.0216 8.42112 1.95758 10.7266C1.89357 13.0321 2.71483 15.2746 4.25267 16.9934C5.79051 18.7122 7.92817 19.7769 10.2265 19.9688C12.5249 20.1606 14.8095 19.4651 16.611 18.025L20.293 21.707L21.707 20.293ZM11 18C9.61557 18 8.26219 17.5894 7.11104 16.8203C5.9599 16.0511 5.06269 14.9578 4.53288 13.6788C4.00307 12.3997 3.86444 10.9922 4.13454 9.63434C4.40464 8.27648 5.07132 7.0292 6.05029 6.05023C7.02926 5.07126 8.27654 4.40458 9.6344 4.13448C10.9923 3.86438 12.3997 4.00301 13.6788 4.53282C14.9579 5.06263 16.0512 5.95984 16.8203 7.11098C17.5895 8.26213 18 9.61551 18 11C17.9979 12.8558 17.2597 14.6351 15.9474 15.9474C14.6351 17.2597 12.8559 17.9979 11 18Z" fill="black"/>
</svg>
