<svg width="24" height="24" viewBox="0 0 24 24" fill="none" xmlns="http://www.w3.org/2000/svg">
<path d="M12 12C12.9889 12 13.9556 11.7068 14.7779 11.1573C15.6001 10.6079 16.241 9.82705 16.6194 8.91342C16.9978 7.99978 17.0969 6.99445 16.9039 6.02455C16.711 5.05464 16.2348 4.16373 15.5355 3.46446C14.8363 2.7652 13.9454 2.289 12.9755 2.09607C12.0055 1.90315 11.0002 2.00216 10.0866 2.3806C9.17295 2.75904 8.39206 3.3999 7.84265 4.22215C7.29324 5.04439 7 6.01109 7 7C7.00159 8.32559 7.52888 9.59644 8.46622 10.5338C9.40356 11.4711 10.6744 11.9984 12 12ZM12 4C12.5933 4 13.1734 4.17595 13.6667 4.50559C14.1601 4.83523 14.5446 5.30377 14.7716 5.85195C14.9987 6.40013 15.0581 7.00333 14.9424 7.58527C14.8266 8.16721 14.5409 8.70176 14.1213 9.12132C13.7018 9.54088 13.1672 9.8266 12.5853 9.94235C12.0033 10.0581 11.4001 9.9987 10.8519 9.77164C10.3038 9.54457 9.83524 9.16006 9.50559 8.66671C9.17595 8.17336 9 7.59334 9 7C9 6.20435 9.31607 5.44129 9.87868 4.87868C10.4413 4.31607 11.2044 4 12 4Z" fill="black"/>
<path d="M20.986 19.835C20.5505 17.8107 19.4052 16.0089 17.7572 14.7554C16.1092 13.5019 14.0671 12.8792 12 13C9.93288 12.8792 7.89078 13.5019 6.24274 14.7554C4.59469 16.0089 3.44944 17.8107 3.01397 19.835L2.81897 21H21.181L20.986 19.835ZM5.34797 19C5.99297 17.475 7.69997 15 12 15C16.261 15 17.983 17.473 18.641 19H5.34797Z" fill="black"/>
</svg>
